# xmcd
#
# Track frame offsets: 
#        150
#        15402
#        33710
#        58658
#        74866
#        88985
#        110476
#        135000
#        151570
#        160613
#        176248
#        192784
#        205124
#        226871
#        239729
#        252039
#        262612
#        275896
#        296240
#
# Disc length: 4215 seconds
#
# Revision: 0
# Processed by: cddbd v1.5.2PL0 Copyright (c) Steve Scherf et al.
# Submitted via: ExactAudioCopy v0.95b4
#
DISCID=0c107513
DTITLE=Albert Lee - Speechless - Gagged But Not Bound
DYEAR=2008
DGENRE=Country
TTITLE0=T-Bird To Vegas
TTITLE1=Bullish Boogie
TTITLE2=Seventeenth Summer
TTITLE3=Salt Creek
TTITLE4=Arkansas Traveller
TTITLE5=Cannonball
TTITLE6=Romany Rye
TTITLE7=Erin
TTITLE8=Flowers Of Edinburgh
TTITLE9=Don't Let Go
TTITLE10=Midnight Special
TTITLE11=Tiger Rag
TTITLE12=Forty Miles Of Bad Road
TTITLE13=Fun Ranch Boogie
TTITLE14=Walkin' After Midnight
TTITLE15=Schön Rosmarin
TTITLE16=Country Gentleman
TTITLE17=Monte Nido
TTITLE18=Oklahoma Stroke
EXTD=
EXTT0=
EXTT1=
EXTT2=
EXTT3=
EXTT4=
EXTT5=
EXTT6=
EXTT7=
EXTT8=
EXTT9=
EXTT10=
EXTT11=
EXTT12=
EXTT13=
EXTT14=
EXTT15=
EXTT16=
EXTT17=
EXTT18=
PLAYORDER=
